<?xml version="1.0" encoding="UTF-8"?>
<svg xmlns="http://www.w3.org/2000/svg" version="1.1" xmlns:xodm="http://www.corel.com/coreldraw/odm/2003" viewBox="0 0 198.4 48.5">
  <defs>
    <style>
      .cls-1 {
        fill: #fff;
      }

      .cls-2 {
        fill: #1e4b73;
      }

      .cls-3 {
        fill: #dbe8f3;
        fill-rule: evenodd;
      }

      .cls-4 {
        fill: #a5a5a5;
      }

      .cls-5 {
        fill: #b2b2b2;
        font-family: FuturaBT-BoldItalic, 'Futura Md BT';
        font-size: 6.4px;
        font-style: italic;
        font-weight: 700;
        isolation: isolate;
      }

      .cls-6 {
        fill: #ededed;
      }
    </style>
  </defs>
  <!-- Generator: Adobe Illustrator 28.6.0, SVG Export Plug-In . SVG Version: 1.2.0 Build 709)  -->
  <g>
    <g id="Capa_1">
      <g id="Layer_x5F_1">
        <polygon class="cls-3" points="22.8 3.8 22.4 5.7 26.2 20 28.1 20.7 41.9 17.8 42.9 16.5 43 .5 41.6 0 22.8 3.8"/>
        <polygon class="cls-3" points="6.5 8.2 5.4 9.8 3.1 20.4 2.8 22.2 1.1 37.7 2 38.3 25.4 32 26.5 30.1 20.3 6.1 19.4 4.8 6.5 8.2"/>
        <polygon class="cls-3" points="28.1 47.9 .7 48.2 0 47.2 .8 40.8 2.4 39.6 25.9 33.1 27.4 33.4 29.7 46.4 28.1 47.9"/>
        <polygon class="cls-3" points="41.3 19.2 26.8 22.9 31.1 47.1 32.1 48.4 41 48.5 41.8 47.5 42.3 20.5 41.3 19.2"/>
        <text class="cls-5" transform="translate(118.3 46.6)"><tspan x="0" y="0">Ingeniería y Construcción</tspan></text>
        <polygon class="cls-6" points="49.4 39.8 61.7 15.2 70.9 15.2 83.2 39.8 58.6 39.8 61.7 33.6 72.4 33.6 66.3 21.3 57.1 39.8 49.4 39.8 49.4 39.8"/>
        <polygon class="cls-6" points="86.3 39.8 86.3 21.3 92.5 15.2 110.9 15.2 110.9 22.9 104.8 22.9 104.8 21.4 95.5 21.4 92.5 24.4 92.5 33.6 110.9 33.6 110.9 39.8 86.3 39.8 86.3 39.8"/>
        <path class="cls-6" d="M114.1,39.8V15.2h24.6s0,24.6,0,24.6h-24.6ZM132.5,33.6v-12.3h-12.3s0,12.3,0,12.3h12.3Z"/>
        <path class="cls-6" d="M141.8,39.8V15.2h9.2s12.3,24.6,12.3,24.6h-7.7s-7.7-15.4-7.7-15.4v15.4h-6.1,0ZM163.3,36.7l-6.1-12.3v-9.2h6.1v21.5Z"/>
        <polygon class="cls-6" points="166.4 39.8 166.4 33.6 184.8 33.6 184.8 30.6 166.4 30.6 166.4 21.3 172.5 15.2 191 15.2 191 22.9 184.8 22.9 184.8 21.4 175.6 21.4 172.5 24.4 191 24.4 191 39.8 166.4 39.8 166.4 39.8"/>
        <path class="cls-1" d="M18.7,15.1h9.3c-.7,1.8-12,24.6-12,24.6H6.7l12-24.6h0,0Z"/>
        <path class="cls-1" d="M39.8,15.2h-9c0,1.8,4.2,24.6,4.2,24.6h9.3s-4.5-24.6-4.5-24.6Z"/>
        <path class="cls-4" d="M30.8,15.2h9c-.7,1.8-11.7,24.6-11.7,24.6h-9.3l12-24.6s0,0,0,0Z"/>
        <path class="cls-2" d="M47.2,15.2h9c-.7,1.8-11.8,24.6-11.8,24.6h-9.3l12.1-24.6h0Z"/>
      </g>
    </g>
  </g>
</svg>